<svg xmlns="http://www.w3.org/2000/svg" xmlns:xlink="http://www.w3.org/1999/xlink" zoomAndPan="magnify" preserveAspectRatio="xMidYMid meet" version="1.0" viewBox="20.1 66.82 334.61 240.16"><defs><g/></defs><path fill="#f0db4f" d="M 20.097656 256.078125 L 20.097656 135.996094 C 20.097656 97.792969 51.066406 66.824219 89.265625 66.824219 L 172.640625 66.824219 C 200.523438 66.824219 223.128906 89.429688 223.128906 117.3125 C 223.128906 145.300781 245.625 168.089844 273.613281 168.449219 L 288.917969 168.648438 C 325.390625 169.117188 354.710938 198.816406 354.710938 235.289062 L 354.710938 238.242188 C 354.710938 256.472656 347.46875 273.960938 334.574219 286.851562 C 321.683594 299.746094 304.195312 306.988281 285.960938 306.988281 L 71.007812 306.988281 C 42.890625 306.988281 20.097656 284.195312 20.097656 256.078125 Z M 20.097656 256.078125 " fill-opacity="1" fill-rule="nonzero"/><g fill="#ffffff" fill-opacity="1"><g transform="translate(45.302685, 169.271342)"><g><path d="M 21.125 -52.640625 L 0.375 -52.640625 L 0.375 -64.875 L 56.90625 -64.875 L 56.90625 -52.640625 L 36.140625 -52.640625 L 36.140625 0 L 21.125 0 Z M 21.125 -52.640625 "/></g></g></g><g fill="#ffffff" fill-opacity="1"><g transform="translate(102.567248, 169.271342)"><g><path d="M 20.484375 -43.28125 C 22.210938 -45.6875 24.539062 -47.503906 27.46875 -48.734375 C 30.40625 -49.972656 33.789062 -50.59375 37.625 -50.59375 L 37.625 -37.25 C 36.019531 -37.375 34.9375 -37.4375 34.375 -37.4375 C 30.238281 -37.4375 26.992188 -36.273438 24.640625 -33.953125 C 22.296875 -31.640625 21.125 -28.164062 21.125 -23.53125 L 21.125 0 L 6.671875 0 L 6.671875 -49.859375 L 20.484375 -49.859375 Z M 20.484375 -43.28125 "/></g></g></g><g fill="#ffffff" fill-opacity="1"><g transform="translate(142.50418, 169.271342)"><g><path d="M 56.15625 -49.859375 L 33.640625 3.0625 C 31.359375 8.800781 28.53125 12.84375 25.15625 15.1875 C 21.789062 17.539062 17.726562 18.71875 12.96875 18.71875 C 10.375 18.71875 7.8125 18.316406 5.28125 17.515625 C 2.75 16.710938 0.679688 15.597656 -0.921875 14.171875 L 4.359375 3.890625 C 5.472656 4.878906 6.753906 5.648438 8.203125 6.203125 C 9.648438 6.765625 11.085938 7.046875 12.515625 7.046875 C 14.484375 7.046875 16.085938 6.566406 17.328125 5.609375 C 18.566406 4.648438 19.679688 3.054688 20.671875 0.828125 L 20.84375 0.375 L -0.734375 -49.859375 L 14.171875 -49.859375 L 28.171875 -16.03125 L 42.265625 -49.859375 Z M 56.15625 -49.859375 "/></g></g></g><g fill="#323330" fill-opacity="1"><g transform="translate(45.302685, 271.093586)"><g><path d="M 38.734375 1.109375 C 32.128906 1.109375 26.148438 -0.320312 20.796875 -3.1875 C 15.453125 -6.0625 11.25 -10.046875 8.1875 -15.140625 C 5.132812 -20.242188 3.609375 -26.007812 3.609375 -32.4375 C 3.609375 -38.863281 5.132812 -44.625 8.1875 -49.71875 C 11.25 -54.8125 15.453125 -58.796875 20.796875 -61.671875 C 26.148438 -64.546875 32.160156 -65.984375 38.828125 -65.984375 C 44.453125 -65.984375 49.535156 -64.992188 54.078125 -63.015625 C 58.617188 -61.035156 62.429688 -58.191406 65.515625 -54.484375 L 55.875 -45.59375 C 51.488281 -50.65625 46.054688 -53.1875 39.578125 -53.1875 C 35.554688 -53.1875 31.96875 -52.304688 28.8125 -50.546875 C 25.664062 -48.785156 23.210938 -46.328125 21.453125 -43.171875 C 19.691406 -40.023438 18.8125 -36.445312 18.8125 -32.4375 C 18.8125 -28.414062 19.691406 -24.828125 21.453125 -21.671875 C 23.210938 -18.523438 25.664062 -16.070312 28.8125 -14.3125 C 31.96875 -12.550781 35.554688 -11.671875 39.578125 -11.671875 C 46.054688 -11.671875 51.488281 -14.238281 55.875 -19.375 L 65.515625 -10.46875 C 62.429688 -6.695312 58.601562 -3.820312 54.03125 -1.84375 C 49.457031 0.125 44.359375 1.109375 38.734375 1.109375 Z M 38.734375 1.109375 "/></g></g></g><g fill="#323330" fill-opacity="1"><g transform="translate(113.223276, 271.093586)"><g><path d="M 26.78125 -50.59375 C 34.5 -50.59375 40.425781 -48.753906 44.5625 -45.078125 C 48.707031 -41.410156 50.78125 -35.867188 50.78125 -28.453125 L 50.78125 0 L 37.25 0 L 37.25 -6.203125 C 34.53125 -1.578125 29.46875 0.734375 22.0625 0.734375 C 18.226562 0.734375 14.90625 0.0859375 12.09375 -1.203125 C 9.28125 -2.503906 7.128906 -4.296875 5.640625 -6.578125 C 4.160156 -8.867188 3.421875 -11.460938 3.421875 -14.359375 C 3.421875 -18.992188 5.164062 -22.640625 8.65625 -25.296875 C 12.15625 -27.953125 17.550781 -29.28125 24.84375 -29.28125 L 36.328125 -29.28125 C 36.328125 -32.4375 35.367188 -34.863281 33.453125 -36.5625 C 31.535156 -38.257812 28.664062 -39.109375 24.84375 -39.109375 C 22.175781 -39.109375 19.5625 -38.691406 17 -37.859375 C 14.4375 -37.023438 12.257812 -35.894531 10.46875 -34.46875 L 5.28125 -44.578125 C 8 -46.492188 11.257812 -47.972656 15.0625 -49.015625 C 18.863281 -50.066406 22.769531 -50.59375 26.78125 -50.59375 Z M 25.671875 -8.984375 C 28.140625 -8.984375 30.332031 -9.554688 32.25 -10.703125 C 34.164062 -11.847656 35.523438 -13.53125 36.328125 -15.75 L 36.328125 -20.84375 L 26.40625 -20.84375 C 20.476562 -20.84375 17.515625 -18.898438 17.515625 -15.015625 C 17.515625 -13.160156 18.238281 -11.691406 19.6875 -10.609375 C 21.144531 -9.523438 23.140625 -8.984375 25.671875 -8.984375 Z M 25.671875 -8.984375 "/></g></g></g><g fill="#323330" fill-opacity="1"><g transform="translate(170.395176, 271.093586)"><g><path d="M 38.828125 -2.40625 C 37.410156 -1.351562 35.664062 -0.566406 33.59375 -0.046875 C 31.519531 0.472656 29.34375 0.734375 27.0625 0.734375 C 21.125 0.734375 16.535156 -0.773438 13.296875 -3.796875 C 10.054688 -6.828125 8.4375 -11.273438 8.4375 -17.140625 L 8.4375 -37.625 L 0.734375 -37.625 L 0.734375 -48.75 L 8.4375 -48.75 L 8.4375 -60.890625 L 22.890625 -60.890625 L 22.890625 -48.75 L 35.3125 -48.75 L 35.3125 -37.625 L 22.890625 -37.625 L 22.890625 -17.328125 C 22.890625 -15.222656 23.429688 -13.597656 24.515625 -12.453125 C 25.597656 -11.316406 27.125 -10.75 29.09375 -10.75 C 31.382812 -10.75 33.332031 -11.367188 34.9375 -12.609375 Z M 38.828125 -2.40625 "/></g></g></g><g fill="#323330" fill-opacity="1"><g transform="translate(210.702759, 271.093586)"><g><path d="M 30.765625 0.734375 C 25.453125 0.734375 20.675781 -0.359375 16.4375 -2.546875 C 12.207031 -4.742188 8.90625 -7.785156 6.53125 -11.671875 C 4.15625 -15.566406 2.96875 -19.984375 2.96875 -24.921875 C 2.96875 -29.867188 4.15625 -34.285156 6.53125 -38.171875 C 8.90625 -42.066406 12.207031 -45.109375 16.4375 -47.296875 C 20.675781 -49.492188 25.453125 -50.59375 30.765625 -50.59375 C 36.015625 -50.59375 40.597656 -49.492188 44.515625 -47.296875 C 48.441406 -45.109375 51.300781 -41.976562 53.09375 -37.90625 L 41.890625 -31.875 C 39.296875 -36.445312 35.554688 -38.734375 30.671875 -38.734375 C 26.898438 -38.734375 23.78125 -37.5 21.3125 -35.03125 C 18.84375 -32.5625 17.609375 -29.191406 17.609375 -24.921875 C 17.609375 -20.660156 18.84375 -17.296875 21.3125 -14.828125 C 23.78125 -12.359375 26.898438 -11.125 30.671875 -11.125 C 35.617188 -11.125 39.359375 -13.410156 41.890625 -17.984375 L 53.09375 -11.859375 C 51.300781 -7.910156 48.441406 -4.820312 44.515625 -2.59375 C 40.597656 -0.375 36.015625 0.734375 30.765625 0.734375 Z M 30.765625 0.734375 "/></g></g></g><g fill="#323330" fill-opacity="1"><g transform="translate(265.465474, 271.093586)"><g><path d="M 36.96875 -50.59375 C 43.15625 -50.59375 48.144531 -48.738281 51.9375 -45.03125 C 55.738281 -41.332031 57.640625 -35.835938 57.640625 -28.546875 L 57.640625 0 L 43.1875 0 L 43.1875 -26.3125 C 43.1875 -30.269531 42.320312 -33.222656 40.59375 -35.171875 C 38.863281 -37.117188 36.359375 -38.09375 33.078125 -38.09375 C 29.429688 -38.09375 26.523438 -36.960938 24.359375 -34.703125 C 22.203125 -32.453125 21.125 -29.101562 21.125 -24.65625 L 21.125 0 L 6.671875 0 L 6.671875 -68.765625 L 21.125 -68.765625 L 21.125 -44.671875 C 23.039062 -46.585938 25.359375 -48.050781 28.078125 -49.0625 C 30.796875 -50.082031 33.757812 -50.59375 36.96875 -50.59375 Z M 36.96875 -50.59375 "/></g></g></g></svg>